<svg width="24" height="24" viewBox="0 0 24 24" fill="none" xmlns="http://www.w3.org/2000/svg">
<circle opacity="0.3" cx="12" cy="12" r="7" fill="#D9D9D9"/>
<ellipse cx="10" cy="8" rx="1" ry="1" fill="#D9D9D9"/>
<ellipse cx="8.22" cy="12.5" rx="1.5" ry="1.5" fill="#D9D9D9"/>
<circle cx="10.5" cy="16.5" r="1.5" fill="#D9D9D9"/>
<path d="M19.9144 4.64456C20.0362 4.50114 20.2478 4.47551 20.4004 4.58573C20.5529 4.69594 20.595 4.90492 20.497 5.06558L16.4574 11.6914C16.3359 11.8906 16.0706 11.944 15.8815 11.8074L14.9618 11.1427C14.7727 11.0061 14.7402 10.7374 14.8912 10.5596L19.9144 4.64456Z" fill="#D9D9D9"/>
<path d="M13.4522 14.4961C13.3117 14.5591 13.1558 14.4463 13.1715 14.2932L13.3485 12.5667C13.3642 12.4135 13.5398 12.3348 13.6646 12.425L15.0712 13.4416C15.196 13.5317 15.1764 13.7232 15.0359 13.7862L13.4522 14.4961Z" fill="#D9D9D9"/>
<rect x="14.3179" y="11.2947" width="2" height="0.999999" rx="0.5" transform="rotate(35.8545 14.3179 11.2947)" fill="#D9D9D9"/>
<path d="M15.5 3.70591C14.4241 3.25134 13.2414 3 12 3C7.02944 3 3 7.02944 3 12C3 16.9706 7.02944 21 12 21C16.9706 21 21 16.9706 21 12C21 11.1325 20.8773 10.2937 20.6482 9.5" stroke="#BFBFBF" stroke-linejoin="round"/>
</svg>
