<svg width="24" height="24" viewBox="0 0 24 24" fill="none" xmlns="http://www.w3.org/2000/svg">
<rect x="2.5" y="4.5" width="19" height="15" rx="1.5" stroke="#D9D9D9"/>
<rect x="4" y="6" width="16" height="12" rx="1" fill="#555555"/>
<path d="M13 12.5C13 13.1922 12.7947 13.8689 12.4101 14.4445C12.0256 15.0201 11.4789 15.4687 10.8394 15.7336C10.1999 15.9985 9.49612 16.0678 8.81718 15.9327C8.13825 15.7977 7.51461 15.4644 7.02513 14.9749C6.53564 14.4854 6.2023 13.8617 6.06725 13.1828C5.9322 12.5039 6.00151 11.8001 6.26642 11.1606C6.53133 10.5211 6.97993 9.97444 7.5555 9.58986C8.13108 9.20527 8.80777 9 9.5 9V12.5H13Z" fill="#C4C4C4"/>
<path d="M10.5 8C10.9596 8 11.4148 8.09053 11.8394 8.26642C12.264 8.44231 12.6499 8.70012 12.9749 9.02513C13.2999 9.35013 13.5577 9.73597 13.7336 10.1606C13.9095 10.5852 14 11.0404 14 11.5L10.5 11.5L10.5 8Z" fill="#C4C4C4"/>
<rect x="15" y="9.5" width="3" height="1" rx="0.5" fill="#C4C4C4"/>
<rect x="15" y="11.5" width="3" height="1" rx="0.5" fill="#C4C4C4"/>
<rect x="15" y="13.5" width="3" height="1" rx="0.5" fill="#C4C4C4"/>
</svg>
