<svg width="24" height="24" viewBox="0 0 24 24" fill="none" xmlns="http://www.w3.org/2000/svg">
<rect x="2.5" y="4.5" width="16" height="15" rx="1.5" stroke="#D9D9D9"/>
<rect x="4" y="6" width="13" height="12" rx="1" fill="#555555"/>
<path d="M13.25 11.567C13.5833 11.7594 13.5833 12.2406 13.25 12.433L9.5 14.5981C9.16667 14.7905 8.75 14.55 8.75 14.1651L8.75 9.83493C8.75 9.45004 9.16667 9.20947 9.5 9.40192L13.25 11.567Z" stroke="#D9D9D9"/>
<path d="M18.8342 12.3481C18.6461 12.1542 18.6461 11.8458 18.8342 11.6519L20.6411 9.78902C20.9538 9.46663 21.5 9.68801 21.5 10.1371L21.5 13.8629C21.5 14.312 20.9538 14.5334 20.6411 14.211L18.8342 12.3481Z" stroke="#D9D9D9"/>
</svg>
